<?xml version="1.0" encoding="UTF-8"?>
<svg version="1.1" viewBox="0 0 1600 736" width="1280" height="1280" xmlns="http://www.w3.org/2000/svg">
<path transform="translate(0)" d="m0 0h1600v736h-1600v-736z" fill="#000002"/>
<path transform="translate(1221 64.8)" d="m0 0c0.73-0 1.47-0.01 2.22-0.01 1.55-0.01 3.09-0.01 4.64-0.01 2.35 0 4.7-0.02 7.06-0.04h4.52c0.69-0.01 1.39-0.02 2.11-0.02 4.32 0.02 7.69 0.8 11.7 2.25 1.8 0.26 3.62 0.46 5.44 0.6 1.02 0.07 2.03 0.15 3.08 0.24 1.04 0.07 2.09 0.14 3.16 0.22 3.09 0.24 6.18 0.47 9.27 0.71 2.03 0.15 4.06 0.3 6.09 0.44 0.96 0.07 1.92 0.15 2.91 0.22 0.85 0.06 1.71 0.12 2.58 0.19 2.73 0.42 4.93 1.32 7.47 2.38 1.37 0.36 2.75 0.68 4.14 0.96 0.76 0.16 1.52 0.32 2.3 0.49 1.57 0.32 3.13 0.64 4.7 0.96 5.19 1.1 9.91 2.66 14.9 4.59 1.3 0.35 2.61 0.69 3.93 1 8.72 2.08 16.8 5.49 25.1 9 1.12 0.46 2.25 0.93 3.42 1.41 9.24 3.85 18.3 8.06 26.6 13.6 2.64 1.75 5.26 3.25 8.07 4.71 11.1 5.96 21.1 13.4 30.9 21.2 0.89 0.72 1.79 1.44 2.71 2.18 0.92 0.75 1.84 1.49 2.79 2.26 0.91 0.74 1.83 1.48 2.78 2.24 2.72 2.32 5.2 4.78 7.72 7.32 1.46 1.33 2.92 2.67 4.4 3.99 4.41 3.96 8.64 7.94 12.4 12.5 1.34 1.66 1.34 1.66 3.53 3.78 2.51 2.52 4.96 5.08 7.37 7.69 0.77 0.82 1.54 1.65 2.33 2.5 1.95 2.45 3 4.54 3.99 7.5h2c1.24 1.45 1.24 1.45 2.64 3.47 0.51 0.74 1.02 1.47 1.55 2.23 0.54 0.78 1.07 1.56 1.62 2.36 1.05 1.51 2.09 3.02 3.14 4.54 0.51 0.74 1.02 1.48 1.55 2.24 1.39 2 2.8 3.97 4.23 5.94 1.77 2.52 3.33 4.94 4.77 7.66 1.5 2.79 3.06 5.47 4.81 8.12 15.8 25.2 26.8 55.3 32.3 84.4 0.15 0.81 0.31 1.62 0.47 2.45 0.13 0.71 0.26 1.43 0.39 2.16 0.43 1.94 0.97 3.86 1.54 5.76 0.97 3.57 1.47 6.89 1.81 10.6 0.19 1.91 0.19 1.91 0.38 3.86 0.18 1.96 0.18 1.96 0.37 3.97 0.24 2.62 0.5 5.24 0.75 7.86 0.16 1.73 0.16 1.73 0.33 3.5 0.27 2.95 0.27 2.95 1.36 5.89 0.09 2.84 0.14 5.66 0.13 8.5v2.52 5.27c-0.01 2.7 0 5.39 0 8.08v5.13 2.44c-0.01 3.28-0.09 5.93-1.13 9.06-0.28 2.21-0.51 4.42-0.72 6.64-0.07 0.65-0.13 1.3-0.19 1.96-0.2 2.07-0.4 4.14-0.59 6.21-0.2 2.06-0.4 4.12-0.6 6.17-0.18 1.88-0.35 3.76-0.53 5.63-0.35 3.16-0.82 6.26-1.37 9.39h-3c0.18 0.86 0.36 1.73 0.55 2.62 0.46 3.46 0.24 6.07-0.37 9.5-0.17 1.02-0.34 2.03-0.52 3.07-0.66 2.81-0.66 2.81-1.63 4.71-1.51 3.05-2.1 6.3-2.85 9.6-1.47 6.23-3.4 12-6.04 17.8-1.23 2.84-2.18 5.71-3.14 8.65-0.69 1.6-1.38 3.2-2.08 4.79-1.72 4.12-3.21 8.32-4.74 12.5-1.18 2.7-1.18 2.7-3.18 3.7-0.27 0.82-0.54 1.65-0.82 2.5-5.4 15.9-17.2 31.1-27.2 44.5l-2.52 3.42c-6.24 8.43-6.24 8.43-9.48 11.6-1.56 1.81-3.08 3.64-4.6 5.47-1.4 1.53-1.4 1.53-3.4 2.53-0.38 0.7-0.75 1.4-1.13 2.12-2.19 3.36-4.72 5.49-7.76 8.05-1.99 1.72-3.84 3.51-5.68 5.39-3.28 3.33-6.63 6.7-10.4 9.44h-2c-0.21 0.56-0.42 1.12-0.63 1.7-1.87 3.12-4.48 4.95-7.37 7.05-0.55 0.41-1.1 0.82-1.66 1.24-4.07 3.01-4.07 3.01-6.34 3.01l-1 3c-2.4 1.75-2.4 1.75-5.38 3.56-0.98 0.6-1.95 1.2-2.96 1.82-0.88 0.53-1.76 1.07-2.66 1.62l-3 2h-3l-1 3c-1.79 1.33-1.79 1.33-4.13 2.67-0.87 0.5-1.73 0.99-2.62 1.5-0.93 0.52-1.86 1.04-2.82 1.58-0.94 0.53-1.89 1.07-2.87 1.62-7.98 4.44-16.1 8.16-24.6 11.6-1.47 0.66-2.92 1.32-4.38 2-36 16-36 16-52.6 16l-3 2c-2.73 0.41-5.39 0.74-8.13 1-5.34 0.51-10.4 1.3-15.7 2.52-13.5 2.96-27.6 2.67-41.4 2.67h-2.49c-2.35 0-4.7-0.01-7.06-0.02-0.71-0.01-1.43-0.01-2.17-0.01-4.98-0.05-4.98-0.05-6.09-1.16-1.84-0.05-3.67-0.04-5.5 0-7.49 0.05-14.1-0.64-21.3-2.49-3.56-0.84-7.17-1.34-10.8-1.89-6.98-1.1-13.6-2.66-20.3-4.72-2.57-0.76-5.09-1.38-7.72-1.9-5.3-1.11-10.3-3.07-15.3-5-1.28-0.48-2.56-0.96-3.84-1.43-12.8-4.79-25.1-10.2-37.2-16.6-1.01-0.53-2.02-1.05-3.06-1.6-5.74-3.05-11.2-6.41-16.6-9.98-2.34-1.55-2.34-1.55-5.31-2.42v-2c-0.68-0.22-1.35-0.44-2.04-0.66-3.91-1.77-7.07-4.18-10.5-6.78-0.7-0.53-1.4-1.05-2.12-1.6-5.77-4.4-11.3-9.03-16.8-13.8-2.57-2.26-2.57-2.26-5.57-4.18v-2c-0.56-0.25-1.12-0.5-1.69-0.75-7.12-3.85-11.9-10.3-16.9-16.4-2.34-2.86-2.34-2.86-5.06-5.44-2.09-2.14-3.01-3.76-4.31-6.37-0.99-0.33-1.98-0.66-3-1-1.39-1.56-1.39-1.56-2.69-3.44-0.44-0.62-0.88-1.23-1.33-1.87-0.98-1.69-0.98-1.69-0.98-3.69-0.99-0.33-1.98-0.66-3-1-1.8-2.32-3.45-4.63-5.07-7.06-0.47-0.71-0.95-1.42-1.44-2.15-3.46-5.16-6.85-10.4-10.2-15.6-0.44-0.68-0.87-1.35-1.32-2.05-2.99-4.79-2.99-4.79-2.99-8.14h-2c-0.25-0.51-0.49-1.03-0.74-1.56-1.13-2.4-2.26-4.79-3.39-7.19-0.38-0.81-0.76-1.61-1.15-2.44-3.14-6.66-6.41-13.2-9.72-19.8-0.11 1.68-0.11 1.68-0.22 3.4-3.42 54.1-3.42 54.1-8.78 64.6-0.46 1.93-0.87 3.87-1.25 5.81-2.59 11.6-7.25 26.7-15.8 35.2-0.68 1.66-1.34 3.33-2 5-0.96 1.63-1.96 3.24-3 4.81-0.52 0.79-1.04 1.58-1.57 2.4-0.71 0.88-0.71 0.88-1.43 1.79h-2c-0.19 0.7-0.38 1.4-0.57 2.12-1.7 3.42-3.72 4.98-6.65 7.35-2.02 1.64-2.02 1.64-4.22 4.47-9.01 10.8-22 19-34.6 25.1-0.72 0.38-1.44 0.76-2.18 1.15-9.02 4.73-18.4 7.57-28.3 10.1-0.68 0.17-1.35 0.35-2.05 0.53-2.85 0.71-5.42 1.22-8.36 1.2-2.37-0.23-2.37-0.23-4.15 2.02-2.51 0.49-4.91 0.84-7.44 1.11-0.79 0.08-1.59 0.17-2.4 0.25-11.7 1.11-23.4 0.91-35.2 0.88-2.68 0-5.36 0-8.04 0.01-6.48 0-13 0-19.4-0.01-7.55-0.01-15.1-0.01-22.6-0.01-13.5 0-26.9-0.01-40.4-0.03-13.1-0.01-26.1-0.02-39.2-0.02h-2.44-2.44c-14.9 0-29.8 0-44.7-0.01-5.26 0-10.5 0-15.8-0.01-6.4 0-12.8 0-19.2-0.01-3.27 0-6.53-0.01-9.8-0.01-3.53 0-7.07 0-10.6-0.01-1.04 0-2.09 0-3.16 0.01-0.94-0.01-1.88-0.01-2.84-0.01-0.82 0-1.64 0-2.48-0.01-1.84-0.12-1.84-0.12-2.84-1.12-0.1-3.12-0.14-6.22-0.13-9.34v-3.02-10.2-7.3c0-5.32 0-10.6 0.01-16v-23.7c0-13.3 0-26.6 0.01-39.9 0.01-13.2 0.01-26.3 0.01-39.5v-2.48-12.5c0-29.4 0.01-58.9 0.02-88.3 0.01-28.6 0.02-57.2 0.02-85.8v-2.67-26.6c0.01-18 0.01-36.1 0.01-54.1v-2.51c0.01-55.4 0.03-111 0.05-166 0.98-0.06 1.97-0.12 2.99-0.19 1.28-0.08 2.56-0.16 3.88-0.25 1.28-0.08 2.55-0.16 3.87-0.25 3.14-0.1 3.14-0.1 5.26-1.31 2.77-0.1 5.53-0.14 8.31-0.13h2.64c2.93-0.01 5.86 0 8.79 0 2.1 0 4.19 0 6.29-0.01h17.1c5.96 0.01 11.9 0 17.9 0 10 0 20 0 30 0.01h34.8c9.93-0.01 19.9-0.01 29.8-0.01h17.8c5.58 0 11.2 0 16.7 0.01h6.16c2.8-0.01 5.59 0 8.38 0 0.82 0 1.64 0 2.49-0.01 5.6 0.02 5.6 0.02 7.83 1.14 2.62 0.13 5.21 0.21 7.83 0.24 1.63 0.04 3.26 0.07 4.89 0.1 0.85 0.01 1.71 0.03 2.59 0.05 24 0.45 24 0.45 34.4 1.55 0.74 0.07 1.47 0.14 2.22 0.22 3.42 0.41 5.17 0.89 8.1 2.84 2.01 0.6 2.01 0.6 4.23 1 1.23 0.25 1.23 0.25 2.49 0.5 0.85 0.16 1.71 0.33 2.59 0.5 5.36 1.05 10.5 2.14 15.7 4 0.7 0.22 1.4 0.44 2.13 0.67 10 3.2 19.6 7.45 28.9 12.3 0.89 0.46 1.79 0.92 2.71 1.4 6.46 3.42 12.4 7.32 18.3 11.6l3 2v2c0.83 0.4 0.83 0.4 1.68 0.81 2.53 1.3 4.95 2.61 7.32 4.19v2c0.99 0.33 1.98 0.66 3 1 2.54 2.47 4.73 5.27 7 8 1.07 1.25 1.07 1.25 2.17 2.52 24.3 28.6 32.6 63 31.8 99.8-0.04 1.91-0.03 3.82-0.01 5.73l1 1c0.8-1.61 0.8-1.61 1.62-3.25 0.55-1.1 0.55-1.1 1.11-2.21 0.89-1.79 1.76-3.59 2.62-5.39 2.84-5.89 5.92-11.2 9.77-16.4 2.68-3.91 4.95-8.02 7.21-12.2 2.46-4.46 2.46-4.46 4.67-5.56l1-2c1-2 1-2 3-3 0.8-1.49 0.8-1.49 1.62-3 2.27-4.14 5.25-7.41 8.43-10.9 2.41-2.63 4.67-5.38 6.95-8.12 6.12-7.16 12.6-13.6 19.6-19.8 1.81-1.65 3.55-3.32 5.24-5.09 2.04-1.98 3.63-2.81 6.13-4.06 2.39-2.28 4.65-4.62 6.87-7.06 2.17-1.98 4.39-3.23 6.96-4.62 2.77-1.69 5.28-3.65 7.85-5.63 4.98-3.8 10.1-7.04 15.5-10.1 2.84-1.59 2.84-1.59 5.65-3.55 3.53-2.31 7.16-4.19 11-6.05 0.7-0.35 1.41-0.7 2.13-1.06 4.38-2.15 8.77-4.23 13.3-6.15 1.97-0.87 3.88-1.82 5.8-2.79 5.42-2.61 10.8-4.64 16.6-6.29 2.16-0.64 4.23-1.38 6.33-2.21 4.1-1.6 8.29-2.68 12.6-3.76 2.47-0.63 2.47-0.63 4.36-1.74 3.15-1.46 6.45-1.92 9.84-2.5 1.36-0.24 2.72-0.48 4.08-0.72 0.69-0.12 1.39-0.25 2.1-0.37 2.15-0.42 4.27-0.9 6.39-1.41 5.59-1.26 11.2-1.9 16.9-2.56 10.1-1.1 10.1-1.1 20-2.96 3.52-0.6 6.98-0.64 10.5-0.65z" fill="#FCFDFE"/>
<path transform="translate(86.6 70.9)" d="m0 0h2.93c1.06-0 2.12 0 3.22 0.01h3.39c3.7 0 7.41 0 11.1 0.01 2.57 0 5.14 0.01 7.7 0.01 6.09 0 12.2 0.01 18.2 0.02 6.91 0.01 13.8 0.01 20.7 0.02 13.6 0.01 27.3 0.03 40.9 0.05h5.16c4.33 0.25 8.65 0.56 13 0.86l5.88 0.39c1.16 0.09 2.33 0.17 3.53 0.25 1.06 0.07 2.12 0.14 3.21 0.22 2.41 0.28 2.41 0.28 3.41 1.28 0.11 2.83 0.15 5.64 0.16 8.47 0 1.34 0 1.34 0.01 2.72 0.01 3.03 0.02 6.07 0.02 9.1 0.01 2.17 0.02 4.34 0.03 6.5 0.02 4.68 0.03 9.35 0.04 14 0.02 7.38 0.05 14.8 0.08 22.2 0.06 16.4 0.12 32.7 0.17 49 0.05 16.3 0.11 32.5 0.17 48.8 0.03 7.35 0.05 14.7 0.07 22 0.02 4.56 0.03 9.12 0.05 13.7 0.01 2.12 0.02 4.25 0.02 6.37 0.01 2.89 0.02 5.78 0.03 8.66v2.59c-0.33 3.74-0.33 3.74 1.15 6.88h102l1-223h15l2-1c2.92-0.1 5.82-0.14 8.74-0.13h2.74c2.99-0.01 5.99-0.01 8.99 0 2.08 0 4.16 0 6.23-0.01 4.36 0 8.72 0.01 13.1 0.01 5.59 0.01 11.2 0 16.8 0 4.29-0.01 8.58-0.01 12.9 0 2.06 0 4.13 0 6.19-0.01 2.88 0 5.76 0.01 8.64 0.01 0.86 0 1.72 0 2.61-0.01 5.9 0.03 5.9 0.03 8.12 1.14 1.88 0.1 3.76 0.13 5.64 0.13 1.14 0 2.27 0.01 3.44 0.01 1.19-0.01 2.38-0.01 3.61-0.01 1.76 0 1.76 0 3.55 0.01 6.95 0.02 6.95 0.02 13.8-0.71 2.83-0.42 4.24-0.25 6.91 0.57 1.52 0.09 3.04 0.13 4.57 0.13h2.31c2.31-0.05 2.31-0.05 5.12-1.13 2 2 2 2 2.25 3.8v2.23c0.01 0.85 0.01 1.7 0.02 2.58-0.01 0.94-0.01 1.88-0.02 2.85 0.01 1 0.01 1.99 0.01 3.02 0.01 3.39 0 6.77-0.01 10.2 0 2.44 0.01 4.87 0.01 7.31v15.9c-0.01 7.9-0.01 15.8-0.01 23.7 0.01 13.3 0 26.6 0 39.9-0.01 13.2-0.02 26.3-0.02 39.5v2.48 9.95c0 31.2-0.01 62.3-0.02 93.5-0.02 27.7-0.02 55.4-0.02 83.1v5.34 2.66 13.3 2.65c0 23.1 0 46.2-0.01 69.4v2.49 9.92c-0.01 11.5-0.01 23-0.01 34.6 0 14.8 0 29.7-0.01 44.5-0.01 7.85-0.01 15.7-0.01 23.6 0 5.85 0 11.7-0.01 17.6v7.14c0 3.22 0 6.43-0.01 9.64 0 0.94 0.01 1.89 0.01 2.86-0.02 6.36-0.02 6.36-1.14 7.47-2.07 0.1-4.14 0.13-6.22 0.13-0.98 0.01-0.98 0.01-1.99 0.01-2.21 0.01-4.43 0.01-6.65 0.01-1.58 0-3.16 0-4.75 0.01-4.31 0-8.62 0.01-12.9 0.01-3.6 0-7.19 0-10.8 0.01-8.48 0-17 0.01-25.4 0.01-8.75-0.01-17.5 0.01-26.3 0.02-7.5 0.01-15 0.02-22.5 0.02-4.49 0-8.98 0-13.5 0.01-4.22 0.01-8.44 0.01-12.7 0-1.55 0-3.1 0.01-4.65 0.01-2.12 0.01-4.23 0.01-6.34 0h-3.59c-2.76-0.25-2.76-0.25-4.76-2.25-0.19-2.83-0.25-5.56-0.23-8.4v-2.66c0-2.96 0.01-5.92 0.02-8.89 0-2.11 0.01-4.23 0.01-6.35 0-4.56 0.01-9.13 0.02-13.7 0.03-7.21 0.03-14.4 0.04-21.6 0.01-11.4 0.03-22.8 0.06-34.2 0.04-20.4 0.07-40.9 0.1-61.3 0.01-7.18 0.02-14.4 0.04-21.5 0.01-4.46 0.01-8.91 0.02-13.4 0-2.07 0.01-4.15 0.02-6.22 0.01-2.82 0.01-5.64 0.01-8.46 0.01-1.25 0.01-1.25 0.01-2.52 0.35-3.68 0.35-3.68-1.12-6.75-33.9-2.26-68-1-102-1-0.49 108-0.49 108-1 219-40.1 0.03-40.1 0.03-80.9 0.06-8.45 0.01-16.9 0.02-25.6 0.03-10.3 0-10.3 0-15.1 0.01-3.37 0-6.74 0-10.1 0.01h-12.9c-1.58 0-3.16 0.01-4.74 0.01h-6.38-3.61c-2.66-0.12-2.66-0.12-3.66-1.12-0.1-3.12-0.13-6.22-0.12-9.34v-3.02c-0.01-3.39 0-6.77 0-10.2v-7.3-16c0.01-7.91 0.01-15.8 0.01-23.7 0-13.3 0-26.6 0.01-39.9 0-13.2 0.01-26.3 0.01-39.5v-2.48-12.5c0-29.4 0.01-58.9 0.02-88.3 0.01-28.6 0.01-57.2 0.02-85.8v-2.67-26.6c0.01-18 0.01-36.1 0.01-54.1v-2.51c0.01-55.4 0.03-111 0.04-166 0.99-0.06 1.98-0.12 3-0.18 1.28-0.09 2.56-0.17 3.88-0.26 1.28-0.08 2.55-0.16 3.87-0.24 3.58-0.35 6.18-1.44 9.84-1.44z" fill="#FCFDFE"/>
<path transform="translate(1232 247)" d="m0 0c1.13-0.01 2.27-0.01 3.43-0.02 6.77 0.06 13 0.74 19.6 2.33 1.05 0.24 1.05 0.24 2.11 0.48 19.4 4.38 40.1 12.6 53.9 27.5 0.78 0.79 1.57 1.57 2.38 2.38l2.62 2.62c0.51 0.48 1.03 0.96 1.55 1.45 21.8 20.8 33.2 50.7 34.6 80.3 0.21 12.5-0.86 25.2-4.19 37.2-0.52 1.9-0.52 1.9-1.04 3.83-2.64 9.07-6.18 17-11 25.2-0.92 1.71-1.84 3.42-2.75 5.13-1.48 2.76-3.01 4.69-5.25 6.87l-2 3h-2c-0.21 0.7-0.41 1.41-0.62 2.13-1.76 3.67-4.18 6.35-7.38 8.87h-2v2c-1.64 1.37-3.31 2.7-5 4-0.66 0.68-1.32 1.36-2 2.07-2.2 2.13-4.35 3.4-7 4.93-1.31 0.92-2.63 1.83-3.94 2.75-25.3 16.8-58.1 22.6-88.1 17.2-1.67-0.65-3.34-1.32-5-2-1.83-0.46-3.66-0.9-5.5-1.31-10.1-2.48-19.6-6.2-28.5-11.7-0.68-0.41-1.36-0.83-2.06-1.26-10.3-6.61-20.3-14.1-27.9-23.7-1.14-1.29-2.29-2.58-3.44-3.87-2.56-2.88-2.56-2.88-2.56-5.13-0.99-0.33-1.98-0.66-3-1-2.6-3.49-4.76-7.27-7-11-0.7-1.09-1.4-2.18-2.12-3.31-6.99-12.6-10.5-28.4-11.9-42.7-0.35-1.32-0.72-2.63-1.12-3.93-0.88-3.07-0.88-3.07 0.12-5.07 0.05-1.49 0.04-2.98-0.01-4.47-0.01-0.9-0.03-1.8-0.05-2.73-0.04-1.88-0.09-3.76-0.15-5.64-0.09-5.51 0.48-9.91 2.43-15.1 1.6-4.26 2.52-8.74 3.62-13.2 2.36-8.52 6.2-16.3 10.5-24 0.45-0.83 0.9-1.67 1.36-2.53 4.21-7.64 9.16-14.2 15.3-20.4 0.66-0.88 1.32-1.77 2-2.69 4.08-5.01 9.8-8.55 15-12.3 0.68-0.52 1.36-1.04 2.06-1.58 8.45-6.17 18.1-10.8 27.9-14.4 0.88-0.34 1.76-0.68 2.66-1.02 13.6-4.95 27-6.24 41.3-6.29z" fill="#FCFDFE"/>
<path transform="translate(1325,252)" d="m0 0c0.84 0.66 0.84 0.66 1.69 1.33 1.47 1.18 2.9 2.42 4.31 3.67v2c0.54 0.21 1.08 0.41 1.64 0.62 3.29 1.92 5.64 4.58 8.17 7.38 0.54 0.59 1.07 1.18 1.62 1.78 11.4 12.7 20.7 28.2 26.6 44.2 0.28 0.74 0.56 1.47 0.86 2.23 0.73 1.92 1.43 3.84 2.14 5.77 0.38 0.91 0.38 0.91 0.78 1.84 2.11 5.14 3.01 10.2 3.79 15.7 0.18 2.38 0.18 2.38 1.43 3.44 2.84 16.3 2.97 32.9 0.69 49.2-0.12 0.84-0.24 1.69-0.36 2.56-0.76 4.92-1.97 9.48-3.63 14.2-0.88 2.54-1.55 5.11-2.2 7.71-1.09 4.08-2.47 7.59-4.5 11.3-0.31 0.78-0.62 1.57-0.94 2.38-1.48 3.65-3.25 7.12-5.06 10.6-0.34 0.68-0.67 1.36-1.02 2.06-3.79 7.29-8.91 13.5-14 19.9-0.55 0.79-1.11 1.58-1.68 2.39-0.44 0.53-0.87 1.06-1.32 1.61h-2c-0.27 0.58-0.54 1.15-0.81 1.75-1.22 2.31-2.49 4.27-4.19 6.25h-2l-1 3c-1.69 1.54-3.45 3.01-5.25 4.44-0.95 0.76-1.91 1.52-2.89 2.31-0.94 0.74-1.89 1.48-2.86 2.25-2.45 1.93-4.79 3.79-7 6-1.32 0.69-2.66 1.35-4 2-3.39 1.85-6.4 3.5-9.37 5.98-2.71 2.08-5.14 3.26-8.32 4.52-1.59 0.63-1.59 0.63-3.21 1.28-1.02 0.4-2.05 0.8-3.1 1.22-1.23 0.53-1.23 0.53-2.48 1.07-25.5 10.9-56.6 13.7-83.5 7.39-2.12-0.49-4.25-0.93-6.38-1.37-8.64-1.84-16.6-4.28-24.6-8.09-0.6-0.28-1.2-0.56-1.82-0.84-18.3-8.5-34-19.8-48.2-34.2-0.6-0.56-1.2-1.11-1.81-1.69-1.19-1.31-1.19-1.31-1.19-3.31h-2c-1.49-1.76-2.89-3.58-4.25-5.44-0.6-0.81-0.6-0.81-1.21-1.64-11.5-15.8-11.5-15.8-11.5-20.9h-2c-1.1-2.52-2.21-5.04-3.31-7.56-0.31-0.71-0.62-1.41-0.94-2.14-0.62-1.42-1.24-2.84-1.85-4.26-0.81-1.84-1.65-3.66-2.5-5.49-1.67-4.23-2.62-8.41-3.52-12.9-0.99-5.49-0.99-5.49-2.88-10.7-1.16-7.61-1.19-15.2-1.19-22.9 0-2.13-0.02-4.27-0.03-6.4-0.06-14.4 1.45-28 6.22-41.7 0.41-1.19 0.83-2.39 1.25-3.62 4.75-13.4 11-27.1 19.8-38.4h2c0.08-0.58 0.16-1.15 0.25-1.75 0.96-2.89 2.58-4.14 4.75-6.25 0.54-0.91 1.07-1.81 1.62-2.75 0.46-0.74 0.91-1.49 1.38-2.25h2l2-4h2c0.23-0.56 0.45-1.11 0.69-1.69 2.74-4.82 6.63-7.55 11.3-10.3l1.94-1.94c2.47-2.47 5.08-4.25 8.06-6.06h2v-2c10.1-5.95 20-11 31-15 0.8-0.29 1.59-0.59 2.41-0.89 2.18-0.77 4.37-1.45 6.59-2.11 1.07-0.33 2.14-0.66 3.25-1 46-13.3 97-2.51 134 28zm-141 4c-1.75 0.68-3.5 1.34-5.25 2-4.63 1.84-8.61 4.25-12.8 7l-3.75 2.25c-8.4 5.28-16.1 10.9-22.2 18.8-1.16 1.3-2.33 2.59-3.5 3.88-12.6 14.5-21.4 33.2-25.2 51.9-1.18 5.89-1.18 5.89-2.45 8.63-1.43 4.17-1.06 8.36-0.95 12.7 0.03 1.8 0.06 3.59 0.09 5.39 0.02 0.79 0.03 1.58 0.05 2.39-0.08 2.1-0.08 2.1-1.08 5.1 0.65 2 1.32 4 2 6 0.74 3.89 1.24 7.82 1.77 11.8 0.83 5.68 2.25 10.9 4.23 16.2 0.4 1.14 0.8 2.27 1.21 3.44 2.37 6.37 4.93 12 8.79 17.6 0.52 0.82 1.04 1.64 1.58 2.48 2.1 3.34 2.1 3.34 4.42 6.52h2c0.19 0.68 0.37 1.36 0.56 2.06 1.67 3.42 3.74 5.43 6.49 8 1.95 1.94 1.95 1.94 4.26 4.82 2.78 3.38 5.97 5.97 9.44 8.62 0.62 0.48 1.24 0.96 1.88 1.45 15.1 11.5 30.9 18.8 49.4 23 0.99 0.33 1.98 0.66 3 1 32 4.8 64.1-0.82 91-19l3-3c1.33-0.67 2.67-1.33 4-2 1.02-0.98 2.02-1.98 3-3 0.89-0.68 1.77-1.36 2.69-2.06 1.14-0.96 1.14-0.96 2.31-1.94v-2c0.59-0.26 1.19-0.52 1.8-0.78 2.38-1.32 3.71-2.65 5.45-4.72 0.52-0.61 1.04-1.22 1.58-1.84 1.36-1.59 1.36-1.59 1.17-3.66 0.99-0.33 1.98-0.66 3-1 0.7-1.32 1.37-2.65 2-4l2-1c1.91-2.85 3.41-5.96 5-9 0.31-0.58 0.62-1.16 0.93-1.75 7.01-13.2 12.3-26.3 14.1-41.2 0.11-0.95 0.22-1.9 0.34-2.88 1.87-19 1.04-39.3-6.34-57.1-0.24-0.61-0.48-1.21-0.73-1.84-5.61-13.9-12.8-26-22.8-37.3-1.59-1.81-3.13-3.66-4.6-5.56-1.84-2.22-3.57-3.73-5.92-5.38-2.15-1.52-4.01-2.95-5.83-4.85-2.7-2.6-5.7-4.54-8.86-6.53-0.93-0.59-0.93-0.59-1.88-1.19-7.61-4.78-14.8-8.88-23.4-11.4-0.67-0.2-1.34-0.39-2.02-0.59-2.35-0.69-4.69-1.36-7.04-2.03-0.76-0.22-1.51-0.44-2.29-0.67-23.8-6.66-53.4-4.45-75.6 6.29z" fill="#000002"/>
<path transform="translate(704 434)" d="m0 0c1.56-0 3.12-0.01 4.68-0.01 3.26-0.01 6.51-0.01 9.77-0.01 4.13 0 8.25-0.01 12.4-0.03 3.22-0.01 6.44-0.01 9.66-0.01 1.52 0 3.04-0.01 4.56-0.01 8.04-0.04 16 0.2 24 1.06 0.69 0.07 1.39 0.14 2.1 0.21 7.7 0.93 13.6 4.28 18.6 10.2 1.55 2.21 2.87 4.44 4.14 6.82 0.6 1.06 0.6 1.06 1.21 2.14 4.04 7.5 3.97 14.8 3.98 23.2 0.01 0.99 0.02 1.99 0.04 3.01 0.01 7.74-0.57 14.8-4.23 21.7-0.54 1.07-1.07 2.14-1.62 3.25-0.46 0.91-0.91 1.81-1.38 2.75h-2c-0.27 0.78-0.54 1.57-0.81 2.37-1.19 2.63-1.19 2.63-4.19 4.63l-2 3c-1.69 0.94-1.69 0.94-4 2-2.47 1.54-2.47 1.54-4.92 3.1-5.5 2.38-11.8 2.05-17.7 2.04-0.83 0.01-1.67 0.01-2.53 0.01-2.75 0.01-5.49 0.01-8.23 0.02-1.92 0-3.83 0-5.74 0.01h-12c-5.13 0-10.3 0.02-15.4 0.03-3.94 0.02-7.89 0.02-11.8 0.02-1.9 0-3.79 0-5.68 0.01-2.64 0.01-5.28 0.01-7.92 0-0.78 0.01-1.57 0.01-2.38 0.02-5.4-0.03-5.4-0.03-7.63-2.26-0.19-2.73-0.26-5.36-0.24-8.09 0-0.84-0.01-1.67-0.01-2.53 0-2.78 0.01-5.55 0.02-8.32v-5.76c0-4.03 0.01-8.06 0.03-12.1 0.01-5.17 0.02-10.3 0.02-15.5 0-3.97 0-7.94 0.01-11.9v-5.72c0.01-2.67 0.02-5.33 0.03-7.99 0-0.8-0.01-1.59-0.01-2.41 0.04-5.45 0.04-5.45 1.15-7.68 8.35-1.99 17.6-1.17 26.1-1.17z" fill="#000002"/>
<path transform="translate(789 226)" d="m0 0c3.82 4.73 6.02 10.4 7.93 16.1 0.36 1.03 0.72 2.06 1.09 3.13 1.16 4.98 1.2 9.65 1.16 14.7 0.01 1.42 0.01 1.42 0.02 2.86-0.02 7.44-0.32 15.2-4.71 21.5-0.45 0.65-0.89 1.31-1.35 1.98-0.4 0.58-0.8 1.17-1.21 1.77-0.44 0.84-0.87 1.69-1.32 2.56-5.31 7.68-12.8 12.1-21.7 14.4l-1 1c-2.76 0.1-5.5 0.14-8.26 0.13h-2.62c-2.87 0.01-5.75 0.01-8.62 0-1.99 0-3.98 0-5.97 0.01-4.17 0-8.35-0.01-12.5-0.01-5.37-0.01-10.7 0-16.1 0-4.11 0.01-8.22 0.01-12.3 0-1.98 0-3.95 0-5.93 0.01-2.76 0-5.52-0.01-8.28-0.01h-2.5c-5.66-0.02-5.66-0.02-7.88-1.13-0.03-11.2-0.05-22.4-0.06-33.5 0-5.19-0.01-10.4-0.02-15.6-0.01-5-0.02-10-0.02-15 0-1.92 0-3.83-0.01-5.74-0.01-2.67-0.01-5.35-0.01-8.02 0-0.8 0-1.59-0.01-2.41 0.01-5.48 0.01-5.48 1.13-7.71 10.5-0.16 20.9-0.3 31.4-0.44 4.86-0.07 9.72-0.14 14.6-0.21 4.7-0.07 9.4-0.13 14.1-0.19 1.79-0.03 3.57-0.05 5.36-0.08 34.3-0.54 34.3-0.54 45.6 9.81z" fill="#000002"/>
<path transform="translate(930,325)" d="m0 0h1c-0.14 1.94-0.29 3.88-0.44 5.81-0.12 1.62-0.12 1.62-0.24 3.27-0.17 2.06-0.34 4.11-0.57 6.16-0.91 8.4-0.9 16.8-0.88 25.2 0 2.52 0 5.04-0.01 7.55 0 8.47 0.14 16.9 0.52 25.4 0.05 1.16 0.05 1.16 0.09 2.35 0.23 4.41 0.91 8.11 2.53 12.3h-2c-1.46-1.59-2.84-3.25-4.19-4.94-0.8-1-1.61-2.01-2.44-3.04-2.01-2.57-3.98-5.16-5.93-7.77-3.38-4.35-7.11-7.85-11.4-11.2-0.72-0.56-1.43-1.13-2.17-1.71-10.4-7.7-22.3-13-34.4-17.2-0.79-0.37-1.57-0.73-2.38-1.11-0.5-1.49-0.5-1.49-1-3 1.19-0.28 2.37-0.56 3.59-0.85 11.1-2.71 21.1-6.33 31.4-11.2 1.43-0.5 1.43-0.5 2.88-1.02 0.7-0.32 1.4-0.65 2.12-0.98 0.5-1.49 0.5-1.49 1-3 1.64-1.04 3.31-2.03 5-3 5.92-4.84 11.2-10.1 16-16l2-2z" fill="#000002"/>
<path transform="translate(548,71)" d="m0 0h213l1 3h-215l1-3z" fill="#98A39C"/>
<path transform="translate(82,71)" d="m0 0h109c0.5 1.48 0.5 1.48 1 3h-111l1-3z" fill="#98A39C"/>
<path transform="translate(351,71)" d="m0 0h93c0.5 1.48 0.5 1.48 1 3h-95l1-3z" fill="#98A39C"/>
<path transform="translate(1213,65)" d="m0 0h34c0.49 1.48 0.49 1.48 1 3h-36l1-3z" fill="#98A39C"/>
</svg>
