<?xml version="1.0" encoding="UTF-8"?>
<svg version="1.1" viewBox="0 0 1600 1064" width="1280" height="1280" xmlns="http://www.w3.org/2000/svg">
<path transform="translate(185,366)" d="m0 0c6.64-0.08 13.3-0.13 19.9-0.16 2.25-0.02 4.51-0.04 6.77-0.07 3.25-0.03 6.49-0.05 9.74-0.06 1.01-0.02 2.02-0.03 3.06-0.05h2.85c0.83-0.01 1.66-0.01 2.51-0.02 2.67 0.45 3.51 1.26 5.15 3.36 1.03 2.42 1.03 2.42 1.94 5.26 0.34 1.04 0.67 2.08 1.02 3.14 0.34 1.09 0.69 2.17 1.04 3.29 0.69 2.13 1.37 4.26 2.06 6.38 0.5 1.53 0.5 1.53 1 3.1 1.21 3.65 2.56 7.23 3.94 10.8 0.86 2.37 1.71 4.75 2.56 7.12 0.42 1.16 0.83 2.32 1.26 3.51 1.09 3.12 2.14 6.24 3.18 9.37 0.72 1.92 1.44 3.85 2.16 5.77 3.12 8.28 6 16.6 8.73 25 0.25 0.74 0.49 1.48 0.74 2.25 0.22 0.66 0.43 1.32 0.66 2.01 0.68 1.96 0.68 1.96 1.67 3.82 1.25 2.54 2.15 5.12 3.06 7.8 0.38 1.11 0.77 2.22 1.16 3.37 0.59 1.73 0.59 1.73 1.2 3.5 2.52 7.39 5.07 14.8 7.77 22.1 1.06 2.92 2.03 5.86 2.99 8.81 1.54 4.53 3.21 9.01 4.87 13.5 0.99 3.04 0.99 3.04 0.99 6.04l2 1c0.92 2.41 1.74 4.79 2.5 7.25 1.67 5.3 1.67 5.3 3.66 10.5 0.84 2.27 0.84 2.27 0.84 6.27h2c1.19-3.56 1.12-6.38 1.11-10.1v-2.22c0-2.46 0-4.92-0.01-7.38 0-1.76-0.01-3.52-0.01-5.28 0-3.8-0.01-7.59-0.01-11.4-0.02-5.99-0.02-12-0.03-18-0.01-12.7-0.03-25.4-0.05-38.2-0.02-13.7-0.04-27.5-0.05-41.2-0.01-5.96-0.02-11.9-0.03-17.9-0.01-3.7-0.01-7.41-0.01-11.1-0.01-1.73-0.01-3.45-0.02-5.17v-7.03c-0.01-1.32-0.01-2.63-0.01-3.99 0.12-3.03 0.12-3.03 1.12-5.03 6.92-0.05 13.8-0.09 20.8-0.11 2.36-0.01 4.71-0.02 7.07-0.04 3.38-0.03 6.76-0.04 10.2-0.05 1.05-0.01 2.11-0.02 3.2-0.03h2.97c1.3 0 1.3 0 2.62-0.01 2.22 0.24 2.22 0.24 5.22 2.24 0.37 2.22 0.37 2.22 0.37 5.06 0.01 1.07 0.01 2.15 0.02 3.26-0.01 1.19-0.02 2.38-0.03 3.61 0 1.26 0.01 2.52 0.01 3.82 0.01 3.51-0.01 7.01-0.02 10.5-0.01 3.78-0.01 7.56-0.01 11.3 0 6.55-0.01 13.1-0.02 19.6-0.03 9.47-0.04 18.9-0.04 28.4-0.01 15.4-0.03 30.7-0.05 46.1-0.03 14.9-0.05 29.8-0.07 44.8v2.78c0 4.62-0.01 9.23-0.01 13.8-0.03 38.3-0.08 76.6-0.15 115-7.65 2.22-7.65 2.22-11.6 2.69-0.84 0.1-1.68 0.2-2.54 0.3-0.88 0.1-1.76 0.2-2.67 0.3-0.93 0.11-1.86 0.22-2.82 0.33-1.95 0.22-3.9 0.45-5.86 0.67-2.97 0.33-5.95 0.68-8.92 1.03-1.91 0.22-3.81 0.44-5.72 0.66-0.88 0.1-1.76 0.2-2.67 0.31-4.76 0.53-9.38 0.82-14.2 0.71-4.53-7.98-7.28-16.4-10.1-25.1-1.86-5.73-3.77-11.4-5.68-17.2-0.39-1.18-0.78-2.35-1.18-3.56-0.37-1.11-0.74-2.22-1.12-3.37-0.33-0.99-0.65-1.98-0.99-3-0.91-2.62-1.91-5.19-2.96-7.76-2.09-5.79-3.75-11.6-5.25-17.6-0.7-2.61-0.7-2.61-2.75-5.38-0.53-1.74-1-3.49-1.44-5.25-1.16-4.47-2.68-8.52-4.56-12.8-1.77-4.81-3.2-9.67-4.5-14.6-1.15-4.33-2.71-8.27-4.5-12.4-0.79-2.5-1.52-5.02-2.26-7.54-0.83-2.76-1.82-5.45-2.85-8.14-5.75-15.1-5.75-15.1-7.08-21.6-0.46-3.76-0.46-3.76-2.81-5.75v178c-3.76 1.5-6.06 2.3-9.88 2.78-0.94 0.12-1.88 0.24-2.85 0.36-1 0.12-2.01 0.24-3.04 0.37-1.04 0.13-2.07 0.26-3.14 0.39-3.3 0.42-6.6 0.82-9.9 1.22-2.24 0.28-4.49 0.56-6.73 0.84-5.48 0.69-11 1.37-16.5 2.04-1.03-3.1-1.13-5.22-1.13-8.47v-3.47-3.82-4.05c-0.01-3.72 0-7.44 0-11.2v-12c-0.01-7.85-0.01-15.7-0.01-23.6 0.01-6.37 0.01-12.8 0.01-19.1v-2.75c0-1.84 0-3.68-0.01-5.52 0-17.3 0.01-34.6 0.01-51.8 0.01-14.8 0-29.7 0-44.5-0.01-17.2-0.01-34.4 0-51.7v-5.5-2.74c0-6.37 0-12.8-0.01-19.1 0-7.76 0-15.5 0.01-23.3v-11.9c-0.01-3.62 0-7.25 0-10.9v-5.83-3.46-3c0.13-2.34 0.13-2.34 1.13-4.34zm116 186 1 2z" fill="#D42128"/>
<path transform="translate(1233,366)" d="m0 0h55l3 9c2.77 7.54 5.78 15 8.78 22.4 1.52 3.81 3.01 7.62 4.47 11.4 2.55 6.64 5.18 13.3 7.81 19.9 0.64 1.6 0.64 1.6 1.29 3.23 4.05 10.1 4.05 10.1 8.65 20 3.2-7.02 6.1-14.1 8.94-21.3 2.91-7.34 5.86-14.6 8.91-21.9 1.01-2.42 2-4.84 2.99-7.26 3.23-7.92 6.57-15.8 10.2-23.5 1.33-2.96 2.66-5.92 3.98-8.88 1.02-2.12 1.02-2.12 2.02-3.12 1.65-0.1 3.3-0.13 4.95-0.13 1.05 0 2.11-0.01 3.19-0.01 1.15 0 2.3 0.01 3.48 0.01 1.17 0 2.34 0 3.55-0.01 2.48 0 4.96 0.01 7.44 0.01 3.81 0 7.62 0 11.4-0.01 2.41 0 4.81 0.01 7.22 0.01 1.14 0 2.29-0.01 3.47-0.01 1.06 0 2.11 0.01 3.2 0.01h2.83c2.25 0.13 2.25 0.13 4.25 1.13-0.66 4.35-2.2 7.99-4 12-0.49 1.15-0.99 2.31-1.5 3.5-0.98 2.3-1.98 4.59-3 6.88-1.05 2.54-1.94 4.94-2.75 7.56-2.61 8.03-6.28 15.7-9.82 23.4-3.71 8.03-7.11 16.2-10.5 24.3-0.99 2.4-1.99 4.8-2.99 7.2-2.88 6.92-5.74 13.8-8.5 20.8-4.15 10.3-8.57 20.6-12.9 30.8-0.92 2.16-1.83 4.33-2.74 6.49-0.83 1.98-1.67 3.95-2.54 5.91-0.37 0.87-0.74 1.74-1.13 2.64-0.33 0.76-0.66 1.51-1 2.29-0.92 3.33-0.21 5.97 0.81 9.2 0.58 2.01 0.58 2.01 0.58 6.01l2 1c0.89 2.3 0.89 2.3 1.81 5.31 1.71 5.35 3.71 10.5 5.9 15.6 3.72 8.85 6.97 17.9 10.2 26.9 2.49 6.98 5.17 13.9 7.84 20.8 0.92 2.4 1.83 4.81 2.73 7.22 1.3 3.47 2.64 6.91 4 10.4 2.66 6.75 5.22 13.5 7.61 20.4 5 14.6 5 14.6 10.9 28.8 2.01 4.36 3.59 8.85 5.19 13.4 0.39 1.12 0.39 1.12 0.79 2.25 1.15 3.29 2.21 6.55 3.02 9.94-4.67-0.66-9.33-1.33-14-2-0.83-0.12-1.65-0.24-2.51-0.36-5.59-0.81-11.2-1.64-16.8-2.51-1.97-0.3-3.94-0.59-5.91-0.87-2.88-0.42-5.75-0.86-8.62-1.31-1.32-0.18-1.32-0.18-2.67-0.37-6.04-0.98-6.04-0.98-8.6-4.03-1-2.7-1.19-4.69-0.94-7.55l-2-1c-0.84-1.91-1.6-3.85-2.31-5.81-2.01-5.41-4.13-10.7-6.38-16-1.45-3.48-2.85-6.98-4.25-10.5-1.03-2.56-2.06-5.12-3.1-7.69-0.67-1.67-1.35-3.35-2.02-5.02-0.51-1.25-0.51-1.25-1.03-2.53-1.89-4.71-3.62-9.44-5.19-14.3-1.13-3.38-2.45-6.67-3.78-9.96-0.39-0.96-0.39-0.96-0.78-1.95-1.27-3.15-2.58-6.23-4.16-9.24-2.16 3.41-3.75 6.71-5.12 10.5-4.48 11.9-9.52 23.6-14.9 35.1-2.55 5.42-4.75 10.9-6.94 16.5-7.74 19.7-7.74 19.7-11 22.9-10.2-0.21-20.5-1.62-30.7-2.73-2.52-0.27-5.04-0.54-7.57-0.81-1.61-0.17-3.22-0.35-4.84-0.52-0.75-0.08-1.5-0.16-2.27-0.24-3.02-0.34-5.72-0.73-8.62-1.7 0.33-5.89 1.72-9.92 4.48-15.1 1.77-3.37 3.41-6.81 5.02-10.3 0.55-1.16 1.09-2.32 1.66-3.52 1.95-4.27 3.72-8.61 5.52-13 2.14-5.1 4.39-10.2 6.63-15.2 3.78-8.55 7.5-17.1 11-25.8 1.42-3.42 2.9-6.77 4.59-10.1 2.39-4.71 4.43-9.56 6.49-14.4 2.78-6.56 5.6-13.1 8.58-19.6 0.86-1.86 1.67-3.74 2.48-5.63 0.87-2.03 1.78-4.05 2.79-6.02 3.14-6.28 4.96-11.4 3.71-18.5-1.07-3.15-2.51-6.03-4-9-1.91-4.46-3.69-8.89-5-13.6-0.78-2.67-1.6-4.88-2.75-7.38-2.29-4.97-4.17-10.1-6.06-15.2-1.19-3.24-2.42-6.44-3.81-9.61-1.38-3.24-1.38-3.24-2.44-6.99-0.79-3.36-0.79-3.36-2.94-6.25-0.29-1.05-0.58-2.1-0.88-3.19-0.85-2.91-1.68-5.05-3.06-7.69-1.83-3.51-3.09-7.01-4.28-10.8-1.09-3.27-2.4-6.43-3.7-9.62-1.02-2.57-1.97-5.15-2.9-7.76-2.24-6.21-4.7-12.3-7.18-18.5-2.51-6.2-5-12.4-7.38-18.7-0.33-0.88-0.67-1.77-1.02-2.68-0.6-2.16-0.6-2.16 0.4-4.16zm59 155 1 2z" fill="#D42128"/>
<path transform="translate(405,366)" d="m0 0c18.2-0.02 36.4-0.04 54.7-0.05 8.46-0.01 16.9-0.01 25.4-0.03 7.38-0.01 14.8-0.01 22.1-0.01 3.9-0.01 7.81-0.01 11.7-0.02h11c1.99 0 3.99-0.01 5.99-0.01h3.57 3.13c2.43 0.12 2.43 0.12 4.43 1.12 1.19 5.66 1.15 11.3 1.13 17 0 0.95 0 1.89 0.01 2.86 0 1.98-0.01 3.96-0.01 5.93-0.01 3.05 0 6.09 0.01 9.13 0 1.92-0.01 3.85-0.01 5.77 0 0.92 0.01 1.83 0.01 2.77-0.03 6.38-0.03 6.38-1.14 7.49-2.83 0.1-5.64 0.13-8.47 0.11h-2.69c-2.95 0-5.89 0-8.84-0.01-2.04 0-4.08-0.01-6.12-0.01-5.38 0-10.8-0.01-16.1-0.02-6.45-0.01-12.9-0.02-19.3-0.02-9.8-0.01-19.6-0.03-29.4-0.05l1 70c12.4-0.5 12.4-0.5 25-1 6.44-0.12 12.9-0.23 19.3-0.24 2.73-0.01 5.45-0.04 8.18-0.07 1.75-0.01 3.5-0.01 5.24-0.02 1.22-0.02 1.22-0.02 2.45-0.04 2.25 0.01 2.25 0.01 5.84 0.37 2.15 3.22 2.25 4.04 2.23 7.75v2.91c-0.01 1.03-0.02 2.07-0.03 3.13s-0.01 2.13-0.01 3.22c-0.01 3.39-0.04 6.78-0.07 10.2-0.01 2.3-0.01 4.6-0.02 6.89-0.02 5.64-0.06 11.3-0.1 16.9-47.5 1.16-47.5 1.16-69 1-0.13 26 0.1 52 1 78 0.71-0.08 1.42-0.16 2.15-0.24 28.8-3.21 57.8-5.39 86.8-4.76 1.73 3 2.25 5.14 2.23 8.58v2.73c-0.01 0.97-0.02 1.93-0.03 2.92-0.01 1-0.01 1.99-0.01 3.01-0.01 3.17-0.04 6.34-0.07 9.51-0.01 2.15-0.01 4.3-0.02 6.45-0.02 5.27-0.06 10.5-0.1 15.8-26.4 2.41-52.8 4.55-79.3 6.64-5.77 0.46-11.5 0.92-17.3 1.39-4.5 0.36-9 0.71-13.5 1.07-2.14 0.17-4.27 0.34-6.4 0.51-2.96 0.24-5.91 0.47-8.87 0.7-0.86 0.07-1.72 0.14-2.61 0.22-5.03 0.39-9.99 0.53-15 0.47-1.25-2.5-1.13-4.16-1.13-6.96v-3.19-3.54-3.74c-0.01-3.44 0-6.87 0-10.3v-11.1c-0.01-7.25-0.01-14.5-0.01-21.8 0.01-5.9 0.01-11.8 0.01-17.7v-2.54c0-1.7 0-3.4-0.01-5.1 0-16 0.01-31.9 0.01-47.9 0.01-13.7 0-27.4 0-41.1-0.01-15.9-0.01-31.8 0-47.7v-5.08-2.53c0-5.88 0-11.8-0.01-17.7 0-7.17 0-14.3 0.01-21.5v-11c-0.01-3.96 0-7.93 0-11.9v-3.54-3.19-2.78c0.13-2.18 0.13-2.18 1.13-4.18z" fill="#D42128"/>
<path transform="translate(775,366)" d="m0 0c18.6-0.02 37.3-0.04 55.9-0.05 8.65-0.01 17.3-0.01 26-0.03 7.53-0.01 15.1-0.01 22.6-0.01 4-0.01 7.99-0.01 12-0.02h11.3c1.38 0 2.76-0.01 4.15-0.01h5.63 3.19c2.36 0.12 2.36 0.12 3.36 1.12 0.16 1.51 0.25 3.02 0.32 4.53 0.04 0.95 0.08 1.9 0.12 2.87 0.04 1.03 0.08 2.05 0.12 3.1 0.04 1.04 0.09 2.08 0.13 3.15 0.47 12.6 0.45 24.8-0.69 37.4h-94c-0.02 9.43-0.04 18.8-0.06 28.6-0.01 2.97-0.02 5.93-0.03 8.99 0 2.36-0.01 4.72-0.01 7.08 0 1.22-0.01 2.43-0.01 3.69v3.56c-0.01 1.02-0.01 2.03-0.01 3.08 0.13 3.36 0.64 6.71 1.12 10 34.2 0.5 34.2 0.5 69 1 2.25 4.5 2.25 4.5 2.24 8 0.01 1.16 0.01 1.16 0.01 2.35-0.01 1.24-0.01 1.24-0.02 2.51v2.62c0 1.82-0.01 3.65-0.02 5.47-0.02 2.78-0.02 5.55-0.02 8.32-0.01 1.78-0.02 3.56-0.02 5.34 0 0.82 0 1.64-0.01 2.49 0 0.78-0.01 1.57-0.01 2.38-0.01 0.68-0.01 1.36-0.02 2.07-0.19 3.5-0.7 6.97-1.13 10.4-23.1 0.33-46.2 0.66-70 1-0.85 5.75-0.85 5.75-1.11 11.4v2.42c0 0.85 0.01 1.7 0.01 2.58 0 0.92 0.01 1.83 0.01 2.78 0 1.98 0.01 3.96 0.01 5.94 0.02 3.15 0.02 6.29 0.03 9.44 0.01 7.82 0.04 15.6 0.06 23.4 0.02 6.61 0.04 13.2 0.05 19.8 0 3.08 0.01 6.16 0.03 9.24 0 1.92 0 3.84 0.01 5.75 0 0.84 0.01 1.68 0.01 2.55 0 6.96-0.57 13.6-1.11 20.6h-49c-1.21-2.42-1.13-3.95-1.13-6.66v-3-3.31-3.5c-0.01-3.22 0-6.44 0-9.66v-10.4c-0.01-6.8-0.01-13.6-0.01-20.4 0.01-5.52 0.01-11 0.01-16.6v-2.38c0-1.59 0-3.18-0.01-4.78 0-15 0.01-29.9 0.01-44.9 0.01-12.8 0-25.7 0-38.5-0.01-14.9-0.01-29.8 0-44.7v-4.76-2.37c0-5.52 0-11-0.01-16.6 0-6.72 0-13.4 0.01-20.2v-10.3c-0.01-3.71 0-7.43 0-11.1v-3.31-3-2.6c0.13-2.06 0.13-2.06 1.13-4.06z" fill="#D42128"/>
<path transform="translate(582,366)" d="m0 0c20.4-0.05 40.9-0.08 61.3-0.1 9.49-0.01 19-0.03 28.5-0.05 8.27-0.02 16.5-0.03 24.8-0.04 4.38 0 8.76-0.01 13.1-0.02 4.12-0.01 8.24-0.02 12.4-0.02 1.51 0 3.03 0 4.54-0.01 2.07-0.01 4.13-0.01 6.19 0 1.73 0 1.73 0 3.5-0.01 2.7 0.25 2.7 0.25 4.7 2.25 0.25 2.09 0.25 2.09 0.24 4.71 0.01 0.98 0.01 1.95 0.01 2.96-0.01 1.59-0.01 1.59-0.02 3.21v3.28c0 2.29-0.01 4.58-0.02 6.87-0.02 3.52-0.02 7.04-0.02 10.6-0.01 2.22-0.02 4.44-0.02 6.66 0 1.06 0 2.12-0.01 3.22 0 0.97-0.01 1.95-0.01 2.95-0.01 0.86-0.01 1.72-0.02 2.61-0.13 1.97-0.13 1.97-1.13 2.97h-53v238c-38.3 1.16-38.3 1.16-51 1-0.9-2.7-1.13-4.26-1.14-7.04 0-0.82-0.01-1.65-0.02-2.5v-2.74c-0.01-1.45-0.01-1.45-0.01-2.92-0.02-3.24-0.03-6.47-0.04-9.71 0-2.32-0.01-4.63-0.03-6.95l-0.06-18.9c-0.03-6.58-0.05-13.2-0.08-19.7-0.04-11-0.08-22.1-0.12-33.1-0.04-11.4-0.08-22.8-0.13-34.1 0-0.7 0-1.4-0.01-2.13-0.01-3.51-0.02-7.03-0.04-10.6-0.11-29.2-0.22-58.4-0.32-87.6-0.63-0.01-1.27-0.01-1.92-0.02-6.59-0.06-13.2-0.15-19.8-0.24-2.46-0.04-4.92-0.06-7.38-0.09-3.53-0.03-7.06-0.08-10.6-0.14-1.1 0-2.21-0.01-3.35-0.02-1.53-0.03-1.53-0.03-3.09-0.06-0.9-0.01-1.8-0.02-2.73-0.03-0.72-0.13-1.44-0.26-2.18-0.4-2.13-3.19-2.25-3.97-2.24-7.62-0.01-0.94-0.01-1.87-0.01-2.83 0-1.01 0.01-2.02 0.02-3.05v-3.14c0-2.18 0.01-4.37 0.02-6.56 0.02-3.35 0.02-6.71 0.02-10.1 0.01-2.13 0.02-4.25 0.02-6.37 0-1.01 0-2.02 0.01-3.05 0-0.94 0.01-1.87 0.01-2.83 0.01-0.82 0.01-1.64 0.02-2.49 0.13-2 0.13-2 1.13-4z" fill="#D42128"/>
<path transform="translate(953,366)" d="m0 0c6.94-0.05 13.9-0.09 20.8-0.11 2.36-0.01 4.72-0.02 7.08-0.04 3.39-0.03 6.79-0.04 10.2-0.05 1.06-0.01 2.12-0.02 3.21-0.03h2.97c0.87 0 1.74-0.01 2.63-0.01 2.1 0.24 2.1 0.24 4.1 2.24 0.19 3.01 0.26 5.93 0.23 8.94 0 0.94 0.01 1.88 0.01 2.85 0 3.16-0.02 6.32-0.03 9.48v6.78l-0.03 14.6c-0.02 7.71-0.03 15.4-0.04 23.1-0.01 10.8-0.02 21.6-0.04 32.5-0.01 0.68-0.01 1.37-0.01 2.08v2.08c-0.02 9.74-0.04 19.5-0.06 29.2v2.07c-0.02 11.4-0.03 22.8-0.04 34.3-0.01 7.67-0.03 15.3-0.04 23l-0.03 14.3c0 2.21-0.01 4.42-0.01 6.63-0.01 3.03-0.02 6.05-0.02 9.08 0 0.87-0.01 1.74-0.01 2.63 0.01 5.83 0.44 11.5 1.12 17.3 0.65-0.01 1.29-0.02 1.96-0.02 15.5-0.18 31 0.33 46.5 1.25 3.61 0.21 7.22 0.41 10.8 0.62 2.33 0.13 4.65 0.26 6.98 0.4 1.06 0.06 2.13 0.12 3.23 0.18 15.9 0.95 15.9 0.95 18.5 3.57 0.24 2.06 0.24 2.06 0.23 4.63v2.91c-0.01 1.04-0.02 2.08-0.03 3.16-0.01 1.06-0.01 2.12-0.01 3.22-0.01 3.4-0.04 6.8-0.07 10.2-0.01 2.31-0.01 4.61-0.02 6.92-0.02 5.65-0.06 11.3-0.1 17-3.64 1.21-6.77 0.93-10.5 0.69-0.77-0.05-1.54-0.09-2.34-0.14-2.56-0.15-5.13-0.32-7.7-0.48-1.81-0.1-3.62-0.21-5.43-0.32-3.86-0.23-7.71-0.46-11.6-0.7-9.95-0.6-19.9-1.19-29.8-1.77-0.99-0.06-1.97-0.11-2.98-0.17-16.7-0.97-33.4-1.8-50-2.42-1.04-0.04-2.08-0.08-3.16-0.12-5.46-0.2-10.9-0.39-16.4-0.57-1.22-2.44-1.13-4-1.13-6.72v-3.04-3.36-3.56c-0.01-3.26 0-6.52 0-9.79v-10.5c-0.01-6.9-0.01-13.8-0.01-20.7 0.01-5.6 0.01-11.2 0.01-16.8v-2.41c0-1.62 0-3.23-0.01-4.85 0-15.2 0.01-30.3 0.01-45.5 0.01-13 0-26 0-39.1-0.01-15.1-0.01-30.2 0-45.3v-4.83-2.4c0-5.6 0-11.2-0.01-16.8 0-6.81 0-13.6 0.01-20.4v-10.4c-0.01-3.77 0-7.53 0-11.3v-3.36-3.04-2.63c0.13-2.09 0.13-2.09 1.13-4.09z" fill="#D42128"/>
<path transform="translate(1137,366)" d="m0 0h48c1.92 3.85 2.25 5.11 2.25 9.19 0 1.06 0 2.12 0.01 3.2-0.01 1.74-0.01 1.74-0.02 3.52 0 1.23 0 2.46 0.01 3.73 0 3.43-0.01 6.85-0.02 10.3-0.01 3.69 0 7.38 0 11.1 0 6.4-0.01 12.8-0.02 19.2-0.01 9.24-0.02 18.5-0.02 27.7-0.01 15-0.02 30-0.04 45-0.02 14.6-0.03 29.2-0.04 43.7v2.72c0 4.51-0.01 9.01-0.01 13.5-0.02 37.4-0.06 74.8-0.1 112-1.2-0.07-2.4-0.13-3.64-0.2-1.61-0.09-3.22-0.18-4.83-0.27-0.79-0.05-1.58-0.09-2.39-0.14-5.2-0.29-10.4-0.56-15.6-0.82-2.01-0.11-4.01-0.22-6.02-0.34-1.37-0.07-2.74-0.14-4.1-0.2-2.02-0.1-4.05-0.22-6.07-0.33-1.76-0.1-1.76-0.1-3.55-0.19-1.38-0.25-1.38-0.25-2.79-0.51-2.19-3.28-2.25-4.2-2.25-8 0-1.04-0.01-2.08-0.01-3.15 0-1.15 0.01-2.29 0.01-3.47v-3.68c-0.01-3.38 0-6.75 0-10.1 0.01-3.64 0-7.27 0-10.9 0-7.13 0-14.3 0.01-21.4 0.01-8.3 0.01-16.6 0.01-24.9 0-14.8 0.01-29.6 0.02-44.4 0.02-14.4 0.03-28.7 0.02-43.1v-2.68-2.68c0-16.4 0.01-32.7 0.02-49v-17.4c0-7.05 0.01-14.1 0.02-21.1 0-3.6 0.01-7.2 0-10.8 0-3.9 0.01-7.79 0.02-11.7-0.01-1.15-0.01-2.3-0.01-3.48 0-1.04 0.01-2.08 0.01-3.14v-2.73c0.13-2.15 0.13-2.15 1.13-4.15z" fill="#D42128"/>
</svg>
