<svg class="svg-icon" style="width: 1em;height: 1em;vertical-align: middle;fill: currentColor;overflow: hidden;" viewBox="0 0 1024 1024" version="1.1" xmlns="http://www.w3.org/2000/svg" ><path d="M1024 464v96h-92.8v92.8h-92.8V560h-92.8v-96h92.8v-92.8h92.8V464H1024z m-384 54.4c0 64-12.8 118.4-38.4 166.4s-64 86.4-108.8 115.2-102.4 41.6-163.2 41.6c-44.8 0-86.4-9.6-128-25.6S124.8 774.4 96 745.6s-51.2-64-70.4-105.6C9.6 598.4 0 556.8 0 512s9.6-86.4 25.6-128 41.6-76.8 70.4-105.6c28.8-28.8 64-54.4 102.4-70.4 41.6-16 83.2-25.6 128-25.6 83.2 0 156.8 28.8 217.6 86.4l-89.6 86.4C419.2 320 377.6 304 323.2 304c-35.2 0-70.4 9.6-102.4 28.8s-54.4 44.8-73.6 76.8c-19.2 32-25.6 67.2-25.6 105.6s9.6 73.6 25.6 105.6c19.2 32 41.6 57.6 73.6 76.8 32 19.2 64 28.8 102.4 28.8 25.6 0 48-3.2 67.2-9.6s38.4-16 51.2-25.6 25.6-22.4 35.2-35.2c9.6-12.8 16-25.6 22.4-38.4 3.2-12.8 6.4-22.4 9.6-32H323.2v-112h307.2c6.4 9.6 9.6 28.8 9.6 44.8z" fill="#FFFFFF" /></svg>

